<?xml version="1.0" encoding="utf-8"?>
<!-- Generator: Adobe Illustrator 24.0.0, SVG Export Plug-In . SVG Version: 6.00 Build 0)  -->
<svg version="1.1" id="图层_1" xmlns="http://www.w3.org/2000/svg" xmlns:xlink="http://www.w3.org/1999/xlink" x="0px" y="0px"
	 viewBox="0 0 579.4 159.2" style="enable-background:new 0 0 579.4 159.2;" xml:space="preserve">
<style type="text/css">
	.st0{fill:#0094D7;}
	.st1{fill:#231312;}
</style>
<g>
	<g>
		<path class="st0" d="M147,22.6H80.6V13H147V22.6z M147,44.6H80.6v-9.4H147V44.6z M147,66.7H80.6v-9.5H147V66.7z M147,88.8H90v28.4
			h37.6v9.4H80.6l0,0V79.2l0,0H147V88.8z M147,145.5H80.6V136h56.9v-28.3H99.6v-9.5H147V145.5z M67.9,145.5h-9.4V79.2h9.4V145.5z
			 M45.7,145.5h-9.5V79.2h9.5V145.5z M23.7,145.5h-9.5V79.2l0,0h9.5V145.5z M145.2,0.4H16.1C8,0.4,1.6,7,1.6,14.9v128.8
			c0,7.9,6.4,14.4,14.5,14.4h129.1c7.9,0,14.5-6.5,14.5-14.4V14.9C159.6,7,153.1,0.4,145.2,0.4"/>
	</g>
	<g>
		<g>
			<path class="st1" d="M234.5,67.5l-1.4-0.5l-2.2,1c-2.5,1.3-5.7,3-10.1,3c-12.7,0-15.3-12.4-15.3-32.4c0-19.9,4.3-27.7,15.3-27.7
				c4.2,0,7.4,2.3,9.6,4.1l1.6,1.1l1.4-0.2l4.4-6.8l0.5-1.2c-0.3-1.6-9.8-7.7-18.2-7.7c-24.2,0-29.2,22.7-29.2,41.7
				c0,27.3,9.2,40.1,29.2,40.1c11.2,0,18.3-5.2,18.5-6.6l-0.5-1.3L234.5,67.5z"/>
		</g>
		<polygon class="st1" points="325,74.4 297.7,40 323.7,7.6 323.1,6.2 315.2,0.2 313.9,0.4 285.7,37.1 285.7,2.5 284.2,0.9 
			273.3,0.9 271.6,2.5 271.6,80.2 273.3,81.7 284.2,81.7 285.7,80.2 285.7,44.9 314.7,81.4 316.5,81.7 324.9,76 		"/>
		<g>
			<path class="st1" d="M409,41.4l-1.5-1.6h-19.7l-1.5,1.6V49l1.5,1.5h9.4v18.3l-0.7,0.3c-1.1,0.4-4.1,1.7-8.4,1.7
				c-13.9,0-15.9-14.6-15.9-30.5c0-12.7,1.6-29.7,16.2-29.7c6.1,0,11.8,3.4,14.1,4.9l1-0.4l3.7-7.6l0.6-1.4
				C407.1,4.9,397.2,0,387.5,0c-19.8,0-29.7,13.9-29.7,41.4c0,27.1,9.6,40.4,29.4,40.4c10,0,21.8-4.3,21.8-8.3V41.4z"/>
			<path class="st1" d="M482.4,39.4l-11.3-6.2c-7-3.5-12.8-6.4-12.8-12.5c0-6.4,4.3-10,11.8-10c6.7,0,13,3.4,15.6,4.8l1.2-0.3
				l3.8-7.6l0.5-1.4C490.6,4.6,480.2,0,469.6,0c-15.5,0-24.7,8.6-24.7,22.9c0,9.4,3.8,13.7,9.7,17.1l10,5.3
				c7.9,3.4,14.2,6.3,14.2,14.2c0,7.5-4.1,11.5-11.4,11.5c-8.1,0-15.7-3.2-18.7-4.7l-1.1,0.5l-3,8.4l0.6,1.3
				c2.7,1.8,12.9,5.4,22.7,5.4c14.4,0,24.3-9.4,24.3-23.7C492.1,50.5,488.9,44.3,482.4,39.4"/>
			<path class="st1" d="M548.1,71.4H543V46h5.3c8.1,0,15.6,1.5,15.6,12.5C563.9,69.8,556.3,71.4,548.1,71.4 M543,11.4h5.7
				c8,0,12.4,4,12.4,11.3c0,10.9-7.4,12.3-13.8,12.3H543V11.4z M563.9,40.3l-2.2-0.6l2.1-1.2c4.3-2.3,11.5-6,11.5-17.6
				c0-18.2-14.2-20.5-26.5-20.5h-18.2l-1.6,1.7v78.5l1.6,1.8h19.2c14.6,0,28.2-2.8,28.2-23C577.9,47,570.3,42.1,563.9,40.3"/>
		</g>
		<rect x="255.2" y="0.4" class="st1" width="1.5" height="82.7"/>
		<rect x="340.1" y="0.4" class="st1" width="1.5" height="82.7"/>
		<rect x="425.1" y="0.4" class="st1" width="1.4" height="82.7"/>
		<rect x="510.1" y="0.4" class="st1" width="1.4" height="82.7"/>
		<g>
			<path class="st1" d="M276.1,157.1l4.2,2.1c7.1-10.1,10.6-21.6,10.6-21.6l-4.3-1.9C286.5,135.6,283.5,146.6,276.1,157.1
				 M290.6,126.5h-13.2v4.1h13.2V126.5z M290.6,114.7h-13.2v4.2h13.2V114.7z M309.6,154.1v-35.2h11.7v-4.2H293v4.2h11.7v35.2h-12.9
				v4.2h30.6v-4.2H309.6z"/>
			<path class="st1" d="M362.1,158.2h3.5v-28.8h-3.5V158.2z M377.3,144.9h12.2v4.6h-12.2V144.9z M373.6,153.2h19.8v-12h-19.8V153.2z
				 M400.6,134.4h-8.5v-4.8h8.5V134.4z M387.8,125.4h-8.7v-5.2h8.7V125.4z M406,120.2v-3.6h-20.6v-2.8h-3.9v2.8h-20.5v3.6h14.1v5.2
				h-13v4.1h12.7c-0.5,4.8-2.1,6.9-7.2,8.4l1.6,3.8c7.5-2.4,9.3-6,9.9-12.3h8.7v8.9h12.8v16.1h-5.5v3.7h9.8v-32.8h-12.8v-5.2H406z"
				/>
		</g>
		<path class="st1" d="M470,141.5l11.2-7v-4h-26.8v4h19.1l-7.8,4.8v3h-19.3v4.1h19.3v7.9h-5.6v3.7h9.9v-11.7h19.2v-4.1H470V141.5z
			 M480.4,122l2.8-7.2l-3.8-1.6l-3.5,8.8H470v-8.2h-4.3v8.2h-7.3v-8.2h-4v8.2h-9.1v9.6h3.9v-5.5h37.3v5.5h3.8V122H480.4z"/>
		<g>
			<path class="st1" d="M220.1,135.7h17.3v-4.1h-34.5v-8.8h31.5v-4h-31.5v-5h-4.7v17.8h-5.8v4.1h5.8v22.4h20v-4.1h-15.3v-18.3h12.2
				c4,16.7,20.8,23.4,20.8,23.4l2.2-3.9C238.1,155.3,223.1,148.2,220.1,135.7"/>
			<path class="st1" d="M541.7,129.5l4-11v-3.8h-14.1v43.4h4.4v-39.7h5.7l-4.3,11.9c3,3,8.8,9.9-0.3,15l2.8,2.5
				C548.7,143,547,134.8,541.7,129.5 M571.7,154.5h-4.9v-16h7.8v-3.7h-26.6v3.7h6.5c-0.3,3.7-1.8,13-10.1,18l3.2,2.7
				c9.2-6.5,10.8-16.8,11.1-20.7h3.9v19.7h12.9v-7.8h-3.9V154.5z M574.6,126.7h-26.6v3.8h26.6V126.7z M563.2,116.6v-2.8h-3.8v2.8
				H547v7.7h3.9v-4.1h20.9v4.1h3.9v-7.7H563.2z"/>
		</g>
		<rect x="510.1" y="113.8" class="st1" width="1.4" height="44.4"/>
		<rect x="425.1" y="113.8" class="st1" width="1.4" height="44.4"/>
		<rect x="340.1" y="113.8" class="st1" width="1.5" height="44.4"/>
		<rect x="255.2" y="113.8" class="st1" width="1.5" height="44.4"/>
	</g>
</g>
</svg>
